<svg xmlns="http://www.w3.org/2000/svg" viewBox="0 0 32 32" width="128" height="128" shape-rendering="crispEdges">
  <!-- Splinter (2012 TMNT) pixel art - 32x32 grid, 16-bit style -->
  <!-- Color palette:
    #374151 = charcoal (ear tips, darkest outlines)
    #4A4E5A = dark grey-blue (ear edges, brow shadow)
    #6B7280 = medium grey (main fur)
    #9CA3AF = light grey (face highlights, fur tufts)
    #B8BCC5 = pale grey (snout, inner face)
    #D1D5DB = lightest grey (snout center, muzzle)
    #E8A0A8 = pink (nose)
    #1F2937 = near-black (eyes, pupils)
    #F9FAFB = white (eye highlights)
    #FFFBEB = warm white (eye secondary highlight)
    #5D4037 = dark brown (robe shadow)
    #795548 = warm brown (robe)
    #8D6E63 = light brown (robe highlight)
    #4B3832 = darkest brown (robe creases)
  -->

  <!-- Row 0-1: ear tips -->
  <rect x="6" y="0" width="1" height="1" fill="#374151"/>
  <rect x="7" y="0" width="1" height="1" fill="#374151"/>
  <rect x="8" y="0" width="1" height="1" fill="#4A4E5A"/>
  <rect x="9" y="0" width="1" height="1" fill="#4A4E5A"/>
  <rect x="22" y="0" width="1" height="1" fill="#4A4E5A"/>
  <rect x="23" y="0" width="1" height="1" fill="#4A4E5A"/>
  <rect x="24" y="0" width="1" height="1" fill="#374151"/>
  <rect x="25" y="0" width="1" height="1" fill="#374151"/>

  <rect x="5" y="1" width="1" height="1" fill="#374151"/>
  <rect x="6" y="1" width="1" height="1" fill="#4A4E5A"/>
  <rect x="7" y="1" width="1" height="1" fill="#4A4E5A"/>
  <rect x="8" y="1" width="1" height="1" fill="#6B7280"/>
  <rect x="9" y="1" width="1" height="1" fill="#6B7280"/>
  <rect x="10" y="1" width="1" height="1" fill="#4A4E5A"/>
  <rect x="21" y="1" width="1" height="1" fill="#4A4E5A"/>
  <rect x="22" y="1" width="1" height="1" fill="#6B7280"/>
  <rect x="23" y="1" width="1" height="1" fill="#6B7280"/>
  <rect x="24" y="1" width="1" height="1" fill="#4A4E5A"/>
  <rect x="25" y="1" width="1" height="1" fill="#4A4E5A"/>
  <rect x="26" y="1" width="1" height="1" fill="#374151"/>

  <!-- Row 2-3: ears wider -->
  <rect x="4" y="2" width="1" height="1" fill="#374151"/>
  <rect x="5" y="2" width="1" height="1" fill="#4A4E5A"/>
  <rect x="6" y="2" width="1" height="1" fill="#6B7280"/>
  <rect x="7" y="2" width="1" height="1" fill="#9CA3AF"/>
  <rect x="8" y="2" width="1" height="1" fill="#9CA3AF"/>
  <rect x="9" y="2" width="1" height="1" fill="#6B7280"/>
  <rect x="10" y="2" width="1" height="1" fill="#4A4E5A"/>
  <rect x="21" y="2" width="1" height="1" fill="#4A4E5A"/>
  <rect x="22" y="2" width="1" height="1" fill="#6B7280"/>
  <rect x="23" y="2" width="1" height="1" fill="#9CA3AF"/>
  <rect x="24" y="2" width="1" height="1" fill="#9CA3AF"/>
  <rect x="25" y="2" width="1" height="1" fill="#6B7280"/>
  <rect x="26" y="2" width="1" height="1" fill="#4A4E5A"/>
  <rect x="27" y="2" width="1" height="1" fill="#374151"/>

  <rect x="4" y="3" width="1" height="1" fill="#374151"/>
  <rect x="5" y="3" width="1" height="1" fill="#6B7280"/>
  <rect x="6" y="3" width="1" height="1" fill="#9CA3AF"/>
  <rect x="7" y="3" width="1" height="1" fill="#9CA3AF"/>
  <rect x="8" y="3" width="1" height="1" fill="#9CA3AF"/>
  <rect x="9" y="3" width="1" height="1" fill="#6B7280"/>
  <rect x="10" y="3" width="1" height="1" fill="#6B7280"/>
  <rect x="11" y="3" width="1" height="1" fill="#4A4E5A"/>
  <rect x="20" y="3" width="1" height="1" fill="#4A4E5A"/>
  <rect x="21" y="3" width="1" height="1" fill="#6B7280"/>
  <rect x="22" y="3" width="1" height="1" fill="#6B7280"/>
  <rect x="23" y="3" width="1" height="1" fill="#9CA3AF"/>
  <rect x="24" y="3" width="1" height="1" fill="#9CA3AF"/>
  <rect x="25" y="3" width="1" height="1" fill="#9CA3AF"/>
  <rect x="26" y="3" width="1" height="1" fill="#6B7280"/>
  <rect x="27" y="3" width="1" height="1" fill="#374151"/>

  <!-- Row 4-5: ears meet head -->
  <rect x="4" y="4" width="1" height="1" fill="#374151"/>
  <rect x="5" y="4" width="1" height="1" fill="#6B7280"/>
  <rect x="6" y="4" width="1" height="1" fill="#9CA3AF"/>
  <rect x="7" y="4" width="1" height="1" fill="#9CA3AF"/>
  <rect x="8" y="4" width="1" height="1" fill="#6B7280"/>
  <rect x="9" y="4" width="1" height="1" fill="#6B7280"/>
  <rect x="10" y="4" width="1" height="1" fill="#6B7280"/>
  <rect x="11" y="4" width="1" height="1" fill="#6B7280"/>
  <rect x="12" y="4" width="1" height="1" fill="#6B7280"/>
  <rect x="13" y="4" width="1" height="1" fill="#6B7280"/>
  <rect x="14" y="4" width="1" height="1" fill="#6B7280"/>
  <rect x="15" y="4" width="1" height="1" fill="#6B7280"/>
  <rect x="16" y="4" width="1" height="1" fill="#6B7280"/>
  <rect x="17" y="4" width="1" height="1" fill="#6B7280"/>
  <rect x="18" y="4" width="1" height="1" fill="#6B7280"/>
  <rect x="19" y="4" width="1" height="1" fill="#6B7280"/>
  <rect x="20" y="4" width="1" height="1" fill="#6B7280"/>
  <rect x="21" y="4" width="1" height="1" fill="#6B7280"/>
  <rect x="22" y="4" width="1" height="1" fill="#6B7280"/>
  <rect x="23" y="4" width="1" height="1" fill="#6B7280"/>
  <rect x="24" y="4" width="1" height="1" fill="#9CA3AF"/>
  <rect x="25" y="4" width="1" height="1" fill="#9CA3AF"/>
  <rect x="26" y="4" width="1" height="1" fill="#6B7280"/>
  <rect x="27" y="4" width="1" height="1" fill="#374151"/>

  <rect x="5" y="5" width="1" height="1" fill="#374151"/>
  <rect x="6" y="5" width="1" height="1" fill="#4A4E5A"/>
  <rect x="7" y="5" width="1" height="1" fill="#6B7280"/>
  <rect x="8" y="5" width="1" height="1" fill="#6B7280"/>
  <rect x="9" y="5" width="1" height="1" fill="#6B7280"/>
  <rect x="10" y="5" width="1" height="1" fill="#6B7280"/>
  <rect x="11" y="5" width="1" height="1" fill="#6B7280"/>
  <rect x="12" y="5" width="1" height="1" fill="#9CA3AF"/>
  <rect x="13" y="5" width="1" height="1" fill="#6B7280"/>
  <rect x="14" y="5" width="1" height="1" fill="#6B7280"/>
  <rect x="15" y="5" width="1" height="1" fill="#6B7280"/>
  <rect x="16" y="5" width="1" height="1" fill="#6B7280"/>
  <rect x="17" y="5" width="1" height="1" fill="#6B7280"/>
  <rect x="18" y="5" width="1" height="1" fill="#6B7280"/>
  <rect x="19" y="5" width="1" height="1" fill="#9CA3AF"/>
  <rect x="20" y="5" width="1" height="1" fill="#6B7280"/>
  <rect x="21" y="5" width="1" height="1" fill="#6B7280"/>
  <rect x="22" y="5" width="1" height="1" fill="#6B7280"/>
  <rect x="23" y="5" width="1" height="1" fill="#6B7280"/>
  <rect x="24" y="5" width="1" height="1" fill="#6B7280"/>
  <rect x="25" y="5" width="1" height="1" fill="#4A4E5A"/>
  <rect x="26" y="5" width="1" height="1" fill="#374151"/>

  <!-- Row 6-7: forehead with fur texture -->
  <rect x="6" y="6" width="1" height="1" fill="#4A4E5A"/>
  <rect x="7" y="6" width="1" height="1" fill="#6B7280"/>
  <rect x="8" y="6" width="1" height="1" fill="#6B7280"/>
  <rect x="9" y="6" width="1" height="1" fill="#6B7280"/>
  <rect x="10" y="6" width="1" height="1" fill="#9CA3AF"/>
  <rect x="11" y="6" width="1" height="1" fill="#6B7280"/>
  <rect x="12" y="6" width="1" height="1" fill="#9CA3AF"/>
  <rect x="13" y="6" width="1" height="1" fill="#6B7280"/>
  <rect x="14" y="6" width="1" height="1" fill="#6B7280"/>
  <rect x="15" y="6" width="1" height="1" fill="#9CA3AF"/>
  <rect x="16" y="6" width="1" height="1" fill="#9CA3AF"/>
  <rect x="17" y="6" width="1" height="1" fill="#6B7280"/>
  <rect x="18" y="6" width="1" height="1" fill="#6B7280"/>
  <rect x="19" y="6" width="1" height="1" fill="#9CA3AF"/>
  <rect x="20" y="6" width="1" height="1" fill="#6B7280"/>
  <rect x="21" y="6" width="1" height="1" fill="#9CA3AF"/>
  <rect x="22" y="6" width="1" height="1" fill="#6B7280"/>
  <rect x="23" y="6" width="1" height="1" fill="#6B7280"/>
  <rect x="24" y="6" width="1" height="1" fill="#6B7280"/>
  <rect x="25" y="6" width="1" height="1" fill="#4A4E5A"/>

  <rect x="6" y="7" width="1" height="1" fill="#4A4E5A"/>
  <rect x="7" y="7" width="1" height="1" fill="#6B7280"/>
  <rect x="8" y="7" width="1" height="1" fill="#9CA3AF"/>
  <rect x="9" y="7" width="1" height="1" fill="#6B7280"/>
  <rect x="10" y="7" width="1" height="1" fill="#6B7280"/>
  <rect x="11" y="7" width="1" height="1" fill="#9CA3AF"/>
  <rect x="12" y="7" width="1" height="1" fill="#6B7280"/>
  <rect x="13" y="7" width="1" height="1" fill="#9CA3AF"/>
  <rect x="14" y="7" width="1" height="1" fill="#9CA3AF"/>
  <rect x="15" y="7" width="1" height="1" fill="#6B7280"/>
  <rect x="16" y="7" width="1" height="1" fill="#6B7280"/>
  <rect x="17" y="7" width="1" height="1" fill="#9CA3AF"/>
  <rect x="18" y="7" width="1" height="1" fill="#9CA3AF"/>
  <rect x="19" y="7" width="1" height="1" fill="#6B7280"/>
  <rect x="20" y="7" width="1" height="1" fill="#9CA3AF"/>
  <rect x="21" y="7" width="1" height="1" fill="#6B7280"/>
  <rect x="22" y="7" width="1" height="1" fill="#6B7280"/>
  <rect x="23" y="7" width="1" height="1" fill="#9CA3AF"/>
  <rect x="24" y="7" width="1" height="1" fill="#6B7280"/>
  <rect x="25" y="7" width="1" height="1" fill="#4A4E5A"/>

  <!-- Row 8-9: heavy brow line (stern V shape) -->
  <rect x="6" y="8" width="1" height="1" fill="#4A4E5A"/>
  <rect x="7" y="8" width="1" height="1" fill="#4A4E5A"/>
  <rect x="8" y="8" width="1" height="1" fill="#374151"/>
  <rect x="9" y="8" width="1" height="1" fill="#374151"/>
  <rect x="10" y="8" width="1" height="1" fill="#374151"/>
  <rect x="11" y="8" width="1" height="1" fill="#374151"/>
  <rect x="12" y="8" width="1" height="1" fill="#6B7280"/>
  <rect x="13" y="8" width="1" height="1" fill="#6B7280"/>
  <rect x="14" y="8" width="1" height="1" fill="#9CA3AF"/>
  <rect x="15" y="8" width="1" height="1" fill="#9CA3AF"/>
  <rect x="16" y="8" width="1" height="1" fill="#9CA3AF"/>
  <rect x="17" y="8" width="1" height="1" fill="#9CA3AF"/>
  <rect x="18" y="8" width="1" height="1" fill="#6B7280"/>
  <rect x="19" y="8" width="1" height="1" fill="#6B7280"/>
  <rect x="20" y="8" width="1" height="1" fill="#374151"/>
  <rect x="21" y="8" width="1" height="1" fill="#374151"/>
  <rect x="22" y="8" width="1" height="1" fill="#374151"/>
  <rect x="23" y="8" width="1" height="1" fill="#374151"/>
  <rect x="24" y="8" width="1" height="1" fill="#4A4E5A"/>
  <rect x="25" y="8" width="1" height="1" fill="#4A4E5A"/>

  <rect x="6" y="9" width="1" height="1" fill="#6B7280"/>
  <rect x="7" y="9" width="1" height="1" fill="#9CA3AF"/>
  <rect x="8" y="9" width="1" height="1" fill="#374151"/>
  <rect x="9" y="9" width="1" height="1" fill="#374151"/>
  <rect x="10" y="9" width="1" height="1" fill="#4A4E5A"/>
  <rect x="11" y="9" width="1" height="1" fill="#9CA3AF"/>
  <rect x="12" y="9" width="1" height="1" fill="#9CA3AF"/>
  <rect x="13" y="9" width="1" height="1" fill="#9CA3AF"/>
  <rect x="14" y="9" width="1" height="1" fill="#9CA3AF"/>
  <rect x="15" y="9" width="1" height="1" fill="#B8BCC5"/>
  <rect x="16" y="9" width="1" height="1" fill="#B8BCC5"/>
  <rect x="17" y="9" width="1" height="1" fill="#9CA3AF"/>
  <rect x="18" y="9" width="1" height="1" fill="#9CA3AF"/>
  <rect x="19" y="9" width="1" height="1" fill="#9CA3AF"/>
  <rect x="20" y="9" width="1" height="1" fill="#9CA3AF"/>
  <rect x="21" y="9" width="1" height="1" fill="#4A4E5A"/>
  <rect x="22" y="9" width="1" height="1" fill="#374151"/>
  <rect x="23" y="9" width="1" height="1" fill="#374151"/>
  <rect x="24" y="9" width="1" height="1" fill="#9CA3AF"/>
  <rect x="25" y="9" width="1" height="1" fill="#6B7280"/>

  <!-- Row 10-11: eyes (2x2 each with highlight) -->
  <rect x="6" y="10" width="1" height="1" fill="#6B7280"/>
  <rect x="7" y="10" width="1" height="1" fill="#9CA3AF"/>
  <rect x="8" y="10" width="1" height="1" fill="#9CA3AF"/>
  <rect x="9" y="10" width="1" height="1" fill="#B8BCC5"/>
  <rect x="10" y="10" width="1" height="1" fill="#1F2937"/>
  <rect x="11" y="10" width="1" height="1" fill="#1F2937"/>
  <rect x="12" y="10" width="1" height="1" fill="#F9FAFB"/>
  <rect x="13" y="10" width="1" height="1" fill="#FFFBEB"/>
  <rect x="14" y="10" width="1" height="1" fill="#9CA3AF"/>
  <rect x="15" y="10" width="1" height="1" fill="#B8BCC5"/>
  <rect x="16" y="10" width="1" height="1" fill="#B8BCC5"/>
  <rect x="17" y="10" width="1" height="1" fill="#9CA3AF"/>
  <rect x="18" y="10" width="1" height="1" fill="#FFFBEB"/>
  <rect x="19" y="10" width="1" height="1" fill="#F9FAFB"/>
  <rect x="20" y="10" width="1" height="1" fill="#1F2937"/>
  <rect x="21" y="10" width="1" height="1" fill="#1F2937"/>
  <rect x="22" y="10" width="1" height="1" fill="#B8BCC5"/>
  <rect x="23" y="10" width="1" height="1" fill="#9CA3AF"/>
  <rect x="24" y="10" width="1" height="1" fill="#9CA3AF"/>
  <rect x="25" y="10" width="1" height="1" fill="#6B7280"/>

  <rect x="6" y="11" width="1" height="1" fill="#6B7280"/>
  <rect x="7" y="11" width="1" height="1" fill="#9CA3AF"/>
  <rect x="8" y="11" width="1" height="1" fill="#B8BCC5"/>
  <rect x="9" y="11" width="1" height="1" fill="#9CA3AF"/>
  <rect x="10" y="11" width="1" height="1" fill="#1F2937"/>
  <rect x="11" y="11" width="1" height="1" fill="#1F2937"/>
  <rect x="12" y="11" width="1" height="1" fill="#1F2937"/>
  <rect x="13" y="11" width="1" height="1" fill="#F9FAFB"/>
  <rect x="14" y="11" width="1" height="1" fill="#9CA3AF"/>
  <rect x="15" y="11" width="1" height="1" fill="#B8BCC5"/>
  <rect x="16" y="11" width="1" height="1" fill="#B8BCC5"/>
  <rect x="17" y="11" width="1" height="1" fill="#9CA3AF"/>
  <rect x="18" y="11" width="1" height="1" fill="#F9FAFB"/>
  <rect x="19" y="11" width="1" height="1" fill="#1F2937"/>
  <rect x="20" y="11" width="1" height="1" fill="#1F2937"/>
  <rect x="21" y="11" width="1" height="1" fill="#1F2937"/>
  <rect x="22" y="11" width="1" height="1" fill="#9CA3AF"/>
  <rect x="23" y="11" width="1" height="1" fill="#B8BCC5"/>
  <rect x="24" y="11" width="1" height="1" fill="#9CA3AF"/>
  <rect x="25" y="11" width="1" height="1" fill="#6B7280"/>

  <!-- Row 12-13: cheeks / upper snout -->
  <rect x="6" y="12" width="1" height="1" fill="#6B7280"/>
  <rect x="7" y="12" width="1" height="1" fill="#9CA3AF"/>
  <rect x="8" y="12" width="1" height="1" fill="#9CA3AF"/>
  <rect x="9" y="12" width="1" height="1" fill="#B8BCC5"/>
  <rect x="10" y="12" width="1" height="1" fill="#B8BCC5"/>
  <rect x="11" y="12" width="1" height="1" fill="#B8BCC5"/>
  <rect x="12" y="12" width="1" height="1" fill="#D1D5DB"/>
  <rect x="13" y="12" width="1" height="1" fill="#D1D5DB"/>
  <rect x="14" y="12" width="1" height="1" fill="#D1D5DB"/>
  <rect x="15" y="12" width="1" height="1" fill="#D1D5DB"/>
  <rect x="16" y="12" width="1" height="1" fill="#D1D5DB"/>
  <rect x="17" y="12" width="1" height="1" fill="#D1D5DB"/>
  <rect x="18" y="12" width="1" height="1" fill="#D1D5DB"/>
  <rect x="19" y="12" width="1" height="1" fill="#D1D5DB"/>
  <rect x="20" y="12" width="1" height="1" fill="#B8BCC5"/>
  <rect x="21" y="12" width="1" height="1" fill="#B8BCC5"/>
  <rect x="22" y="12" width="1" height="1" fill="#B8BCC5"/>
  <rect x="23" y="12" width="1" height="1" fill="#9CA3AF"/>
  <rect x="24" y="12" width="1" height="1" fill="#9CA3AF"/>
  <rect x="25" y="12" width="1" height="1" fill="#6B7280"/>

  <rect x="6" y="13" width="1" height="1" fill="#6B7280"/>
  <rect x="7" y="13" width="1" height="1" fill="#9CA3AF"/>
  <rect x="8" y="13" width="1" height="1" fill="#B8BCC5"/>
  <rect x="9" y="13" width="1" height="1" fill="#B8BCC5"/>
  <rect x="10" y="13" width="1" height="1" fill="#D1D5DB"/>
  <rect x="11" y="13" width="1" height="1" fill="#D1D5DB"/>
  <rect x="12" y="13" width="1" height="1" fill="#D1D5DB"/>
  <rect x="13" y="13" width="1" height="1" fill="#D1D5DB"/>
  <rect x="14" y="13" width="1" height="1" fill="#D1D5DB"/>
  <rect x="15" y="13" width="1" height="1" fill="#D1D5DB"/>
  <rect x="16" y="13" width="1" height="1" fill="#D1D5DB"/>
  <rect x="17" y="13" width="1" height="1" fill="#D1D5DB"/>
  <rect x="18" y="13" width="1" height="1" fill="#D1D5DB"/>
  <rect x="19" y="13" width="1" height="1" fill="#D1D5DB"/>
  <rect x="20" y="13" width="1" height="1" fill="#D1D5DB"/>
  <rect x="21" y="13" width="1" height="1" fill="#D1D5DB"/>
  <rect x="22" y="13" width="1" height="1" fill="#B8BCC5"/>
  <rect x="23" y="13" width="1" height="1" fill="#B8BCC5"/>
  <rect x="24" y="13" width="1" height="1" fill="#9CA3AF"/>
  <rect x="25" y="13" width="1" height="1" fill="#6B7280"/>

  <!-- Row 14-15: nose + whiskers -->
  <rect x="2" y="14" width="1" height="1" fill="#9CA3AF"/>
  <rect x="3" y="14" width="1" height="1" fill="#9CA3AF"/>
  <rect x="4" y="14" width="1" height="1" fill="#6B7280"/>
  <rect x="5" y="14" width="1" height="1" fill="#6B7280"/>
  <rect x="6" y="14" width="1" height="1" fill="#9CA3AF"/>
  <rect x="7" y="14" width="1" height="1" fill="#B8BCC5"/>
  <rect x="8" y="14" width="1" height="1" fill="#B8BCC5"/>
  <rect x="9" y="14" width="1" height="1" fill="#D1D5DB"/>
  <rect x="10" y="14" width="1" height="1" fill="#D1D5DB"/>
  <rect x="11" y="14" width="1" height="1" fill="#D1D5DB"/>
  <rect x="12" y="14" width="1" height="1" fill="#D1D5DB"/>
  <rect x="13" y="14" width="1" height="1" fill="#D1D5DB"/>
  <rect x="14" y="14" width="1" height="1" fill="#E8A0A8"/>
  <rect x="15" y="14" width="1" height="1" fill="#E8A0A8"/>
  <rect x="16" y="14" width="1" height="1" fill="#E8A0A8"/>
  <rect x="17" y="14" width="1" height="1" fill="#E8A0A8"/>
  <rect x="18" y="14" width="1" height="1" fill="#D1D5DB"/>
  <rect x="19" y="14" width="1" height="1" fill="#D1D5DB"/>
  <rect x="20" y="14" width="1" height="1" fill="#D1D5DB"/>
  <rect x="21" y="14" width="1" height="1" fill="#D1D5DB"/>
  <rect x="22" y="14" width="1" height="1" fill="#D1D5DB"/>
  <rect x="23" y="14" width="1" height="1" fill="#B8BCC5"/>
  <rect x="24" y="14" width="1" height="1" fill="#B8BCC5"/>
  <rect x="25" y="14" width="1" height="1" fill="#9CA3AF"/>
  <rect x="26" y="14" width="1" height="1" fill="#6B7280"/>
  <rect x="27" y="14" width="1" height="1" fill="#6B7280"/>
  <rect x="28" y="14" width="1" height="1" fill="#9CA3AF"/>
  <rect x="29" y="14" width="1" height="1" fill="#9CA3AF"/>

  <rect x="1" y="15" width="1" height="1" fill="#9CA3AF"/>
  <rect x="2" y="15" width="1" height="1" fill="#6B7280"/>
  <rect x="3" y="15" width="1" height="1" fill="#6B7280"/>
  <rect x="6" y="15" width="1" height="1" fill="#6B7280"/>
  <rect x="7" y="15" width="1" height="1" fill="#B8BCC5"/>
  <rect x="8" y="15" width="1" height="1" fill="#D1D5DB"/>
  <rect x="9" y="15" width="1" height="1" fill="#D1D5DB"/>
  <rect x="10" y="15" width="1" height="1" fill="#D1D5DB"/>
  <rect x="11" y="15" width="1" height="1" fill="#D1D5DB"/>
  <rect x="12" y="15" width="1" height="1" fill="#D1D5DB"/>
  <rect x="13" y="15" width="1" height="1" fill="#D1D5DB"/>
  <rect x="14" y="15" width="1" height="1" fill="#E8A0A8"/>
  <rect x="15" y="15" width="1" height="1" fill="#D1D5DB"/>
  <rect x="16" y="15" width="1" height="1" fill="#D1D5DB"/>
  <rect x="17" y="15" width="1" height="1" fill="#E8A0A8"/>
  <rect x="18" y="15" width="1" height="1" fill="#D1D5DB"/>
  <rect x="19" y="15" width="1" height="1" fill="#D1D5DB"/>
  <rect x="20" y="15" width="1" height="1" fill="#D1D5DB"/>
  <rect x="21" y="15" width="1" height="1" fill="#D1D5DB"/>
  <rect x="22" y="15" width="1" height="1" fill="#D1D5DB"/>
  <rect x="23" y="15" width="1" height="1" fill="#D1D5DB"/>
  <rect x="24" y="15" width="1" height="1" fill="#B8BCC5"/>
  <rect x="25" y="15" width="1" height="1" fill="#6B7280"/>
  <rect x="28" y="15" width="1" height="1" fill="#6B7280"/>
  <rect x="29" y="15" width="1" height="1" fill="#6B7280"/>
  <rect x="30" y="15" width="1" height="1" fill="#9CA3AF"/>

  <!-- Row 16-17: mouth area + whiskers -->
  <rect x="0" y="16" width="1" height="1" fill="#9CA3AF"/>
  <rect x="1" y="16" width="1" height="1" fill="#6B7280"/>
  <rect x="2" y="16" width="1" height="1" fill="#6B7280"/>
  <rect x="7" y="16" width="1" height="1" fill="#6B7280"/>
  <rect x="8" y="16" width="1" height="1" fill="#B8BCC5"/>
  <rect x="9" y="16" width="1" height="1" fill="#D1D5DB"/>
  <rect x="10" y="16" width="1" height="1" fill="#D1D5DB"/>
  <rect x="11" y="16" width="1" height="1" fill="#D1D5DB"/>
  <rect x="12" y="16" width="1" height="1" fill="#D1D5DB"/>
  <rect x="13" y="16" width="1" height="1" fill="#D1D5DB"/>
  <rect x="14" y="16" width="1" height="1" fill="#D1D5DB"/>
  <rect x="15" y="16" width="1" height="1" fill="#D1D5DB"/>
  <rect x="16" y="16" width="1" height="1" fill="#D1D5DB"/>
  <rect x="17" y="16" width="1" height="1" fill="#D1D5DB"/>
  <rect x="18" y="16" width="1" height="1" fill="#D1D5DB"/>
  <rect x="19" y="16" width="1" height="1" fill="#D1D5DB"/>
  <rect x="20" y="16" width="1" height="1" fill="#D1D5DB"/>
  <rect x="21" y="16" width="1" height="1" fill="#D1D5DB"/>
  <rect x="22" y="16" width="1" height="1" fill="#D1D5DB"/>
  <rect x="23" y="16" width="1" height="1" fill="#B8BCC5"/>
  <rect x="24" y="16" width="1" height="1" fill="#6B7280"/>
  <rect x="29" y="16" width="1" height="1" fill="#6B7280"/>
  <rect x="30" y="16" width="1" height="1" fill="#6B7280"/>
  <rect x="31" y="16" width="1" height="1" fill="#9CA3AF"/>

  <rect x="2" y="17" width="1" height="1" fill="#9CA3AF"/>
  <rect x="3" y="17" width="1" height="1" fill="#6B7280"/>
  <rect x="4" y="17" width="1" height="1" fill="#6B7280"/>
  <rect x="7" y="17" width="1" height="1" fill="#6B7280"/>
  <rect x="8" y="17" width="1" height="1" fill="#B8BCC5"/>
  <rect x="9" y="17" width="1" height="1" fill="#D1D5DB"/>
  <rect x="10" y="17" width="1" height="1" fill="#D1D5DB"/>
  <rect x="11" y="17" width="1" height="1" fill="#D1D5DB"/>
  <rect x="12" y="17" width="1" height="1" fill="#D1D5DB"/>
  <rect x="13" y="17" width="1" height="1" fill="#B8BCC5"/>
  <rect x="14" y="17" width="1" height="1" fill="#4A4E5A"/>
  <rect x="15" y="17" width="1" height="1" fill="#4A4E5A"/>
  <rect x="16" y="17" width="1" height="1" fill="#4A4E5A"/>
  <rect x="17" y="17" width="1" height="1" fill="#4A4E5A"/>
  <rect x="18" y="17" width="1" height="1" fill="#B8BCC5"/>
  <rect x="19" y="17" width="1" height="1" fill="#D1D5DB"/>
  <rect x="20" y="17" width="1" height="1" fill="#D1D5DB"/>
  <rect x="21" y="17" width="1" height="1" fill="#D1D5DB"/>
  <rect x="22" y="17" width="1" height="1" fill="#D1D5DB"/>
  <rect x="23" y="17" width="1" height="1" fill="#B8BCC5"/>
  <rect x="24" y="17" width="1" height="1" fill="#6B7280"/>
  <rect x="27" y="17" width="1" height="1" fill="#6B7280"/>
  <rect x="28" y="17" width="1" height="1" fill="#6B7280"/>
  <rect x="29" y="17" width="1" height="1" fill="#9CA3AF"/>

  <!-- Row 18-19: lower snout -->
  <rect x="3" y="18" width="1" height="1" fill="#9CA3AF"/>
  <rect x="4" y="18" width="1" height="1" fill="#6B7280"/>
  <rect x="5" y="18" width="1" height="1" fill="#6B7280"/>
  <rect x="8" y="18" width="1" height="1" fill="#6B7280"/>
  <rect x="9" y="18" width="1" height="1" fill="#B8BCC5"/>
  <rect x="10" y="18" width="1" height="1" fill="#D1D5DB"/>
  <rect x="11" y="18" width="1" height="1" fill="#D1D5DB"/>
  <rect x="12" y="18" width="1" height="1" fill="#D1D5DB"/>
  <rect x="13" y="18" width="1" height="1" fill="#D1D5DB"/>
  <rect x="14" y="18" width="1" height="1" fill="#D1D5DB"/>
  <rect x="15" y="18" width="1" height="1" fill="#D1D5DB"/>
  <rect x="16" y="18" width="1" height="1" fill="#D1D5DB"/>
  <rect x="17" y="18" width="1" height="1" fill="#D1D5DB"/>
  <rect x="18" y="18" width="1" height="1" fill="#D1D5DB"/>
  <rect x="19" y="18" width="1" height="1" fill="#D1D5DB"/>
  <rect x="20" y="18" width="1" height="1" fill="#D1D5DB"/>
  <rect x="21" y="18" width="1" height="1" fill="#D1D5DB"/>
  <rect x="22" y="18" width="1" height="1" fill="#B8BCC5"/>
  <rect x="23" y="18" width="1" height="1" fill="#6B7280"/>
  <rect x="26" y="18" width="1" height="1" fill="#6B7280"/>
  <rect x="27" y="18" width="1" height="1" fill="#6B7280"/>
  <rect x="28" y="18" width="1" height="1" fill="#9CA3AF"/>

  <rect x="8" y="19" width="1" height="1" fill="#6B7280"/>
  <rect x="9" y="19" width="1" height="1" fill="#9CA3AF"/>
  <rect x="10" y="19" width="1" height="1" fill="#B8BCC5"/>
  <rect x="11" y="19" width="1" height="1" fill="#D1D5DB"/>
  <rect x="12" y="19" width="1" height="1" fill="#D1D5DB"/>
  <rect x="13" y="19" width="1" height="1" fill="#D1D5DB"/>
  <rect x="14" y="19" width="1" height="1" fill="#B8BCC5"/>
  <rect x="15" y="19" width="1" height="1" fill="#B8BCC5"/>
  <rect x="16" y="19" width="1" height="1" fill="#B8BCC5"/>
  <rect x="17" y="19" width="1" height="1" fill="#B8BCC5"/>
  <rect x="18" y="19" width="1" height="1" fill="#D1D5DB"/>
  <rect x="19" y="19" width="1" height="1" fill="#D1D5DB"/>
  <rect x="20" y="19" width="1" height="1" fill="#D1D5DB"/>
  <rect x="21" y="19" width="1" height="1" fill="#B8BCC5"/>
  <rect x="22" y="19" width="1" height="1" fill="#9CA3AF"/>
  <rect x="23" y="19" width="1" height="1" fill="#6B7280"/>

  <!-- Row 20-21: chin + jaw fur -->
  <rect x="7" y="20" width="1" height="1" fill="#6B7280"/>
  <rect x="8" y="20" width="1" height="1" fill="#9CA3AF"/>
  <rect x="9" y="20" width="1" height="1" fill="#6B7280"/>
  <rect x="10" y="20" width="1" height="1" fill="#9CA3AF"/>
  <rect x="11" y="20" width="1" height="1" fill="#B8BCC5"/>
  <rect x="12" y="20" width="1" height="1" fill="#B8BCC5"/>
  <rect x="13" y="20" width="1" height="1" fill="#B8BCC5"/>
  <rect x="14" y="20" width="1" height="1" fill="#B8BCC5"/>
  <rect x="15" y="20" width="1" height="1" fill="#B8BCC5"/>
  <rect x="16" y="20" width="1" height="1" fill="#B8BCC5"/>
  <rect x="17" y="20" width="1" height="1" fill="#B8BCC5"/>
  <rect x="18" y="20" width="1" height="1" fill="#B8BCC5"/>
  <rect x="19" y="20" width="1" height="1" fill="#B8BCC5"/>
  <rect x="20" y="20" width="1" height="1" fill="#B8BCC5"/>
  <rect x="21" y="20" width="1" height="1" fill="#9CA3AF"/>
  <rect x="22" y="20" width="1" height="1" fill="#6B7280"/>
  <rect x="23" y="20" width="1" height="1" fill="#9CA3AF"/>
  <rect x="24" y="20" width="1" height="1" fill="#6B7280"/>

  <rect x="5" y="21" width="1" height="1" fill="#6B7280"/>
  <rect x="6" y="21" width="1" height="1" fill="#9CA3AF"/>
  <rect x="7" y="21" width="1" height="1" fill="#6B7280"/>
  <rect x="8" y="21" width="1" height="1" fill="#9CA3AF"/>
  <rect x="9" y="21" width="1" height="1" fill="#6B7280"/>
  <rect x="10" y="21" width="1" height="1" fill="#9CA3AF"/>
  <rect x="11" y="21" width="1" height="1" fill="#6B7280"/>
  <rect x="12" y="21" width="1" height="1" fill="#9CA3AF"/>
  <rect x="13" y="21" width="1" height="1" fill="#9CA3AF"/>
  <rect x="14" y="21" width="1" height="1" fill="#6B7280"/>
  <rect x="15" y="21" width="1" height="1" fill="#9CA3AF"/>
  <rect x="16" y="21" width="1" height="1" fill="#9CA3AF"/>
  <rect x="17" y="21" width="1" height="1" fill="#6B7280"/>
  <rect x="18" y="21" width="1" height="1" fill="#9CA3AF"/>
  <rect x="19" y="21" width="1" height="1" fill="#9CA3AF"/>
  <rect x="20" y="21" width="1" height="1" fill="#6B7280"/>
  <rect x="21" y="21" width="1" height="1" fill="#9CA3AF"/>
  <rect x="22" y="21" width="1" height="1" fill="#6B7280"/>
  <rect x="23" y="21" width="1" height="1" fill="#9CA3AF"/>
  <rect x="24" y="21" width="1" height="1" fill="#6B7280"/>
  <rect x="25" y="21" width="1" height="1" fill="#9CA3AF"/>
  <rect x="26" y="21" width="1" height="1" fill="#6B7280"/>

  <!-- Row 22-23: jaw tufts + neck transition -->
  <rect x="4" y="22" width="1" height="1" fill="#6B7280"/>
  <rect x="5" y="22" width="1" height="1" fill="#9CA3AF"/>
  <rect x="6" y="22" width="1" height="1" fill="#6B7280"/>
  <rect x="7" y="22" width="1" height="1" fill="#9CA3AF"/>
  <rect x="8" y="22" width="1" height="1" fill="#6B7280"/>
  <rect x="9" y="22" width="1" height="1" fill="#9CA3AF"/>
  <rect x="10" y="22" width="1" height="1" fill="#6B7280"/>
  <rect x="11" y="22" width="1" height="1" fill="#9CA3AF"/>
  <rect x="12" y="22" width="1" height="1" fill="#6B7280"/>
  <rect x="13" y="22" width="1" height="1" fill="#9CA3AF"/>
  <rect x="14" y="22" width="1" height="1" fill="#6B7280"/>
  <rect x="15" y="22" width="1" height="1" fill="#9CA3AF"/>
  <rect x="16" y="22" width="1" height="1" fill="#9CA3AF"/>
  <rect x="17" y="22" width="1" height="1" fill="#6B7280"/>
  <rect x="18" y="22" width="1" height="1" fill="#9CA3AF"/>
  <rect x="19" y="22" width="1" height="1" fill="#6B7280"/>
  <rect x="20" y="22" width="1" height="1" fill="#9CA3AF"/>
  <rect x="21" y="22" width="1" height="1" fill="#6B7280"/>
  <rect x="22" y="22" width="1" height="1" fill="#9CA3AF"/>
  <rect x="23" y="22" width="1" height="1" fill="#6B7280"/>
  <rect x="24" y="22" width="1" height="1" fill="#9CA3AF"/>
  <rect x="25" y="22" width="1" height="1" fill="#6B7280"/>
  <rect x="26" y="22" width="1" height="1" fill="#9CA3AF"/>
  <rect x="27" y="22" width="1" height="1" fill="#6B7280"/>

  <rect x="9" y="23" width="1" height="1" fill="#6B7280"/>
  <rect x="10" y="23" width="1" height="1" fill="#9CA3AF"/>
  <rect x="11" y="23" width="1" height="1" fill="#6B7280"/>
  <rect x="12" y="23" width="1" height="1" fill="#9CA3AF"/>
  <rect x="13" y="23" width="1" height="1" fill="#6B7280"/>
  <rect x="14" y="23" width="1" height="1" fill="#6B7280"/>
  <rect x="15" y="23" width="1" height="1" fill="#9CA3AF"/>
  <rect x="16" y="23" width="1" height="1" fill="#9CA3AF"/>
  <rect x="17" y="23" width="1" height="1" fill="#6B7280"/>
  <rect x="18" y="23" width="1" height="1" fill="#6B7280"/>
  <rect x="19" y="23" width="1" height="1" fill="#9CA3AF"/>
  <rect x="20" y="23" width="1" height="1" fill="#6B7280"/>
  <rect x="21" y="23" width="1" height="1" fill="#9CA3AF"/>
  <rect x="22" y="23" width="1" height="1" fill="#6B7280"/>

  <!-- Row 24-25: robe collar -->
  <rect x="8" y="24" width="1" height="1" fill="#5D4037"/>
  <rect x="9" y="24" width="1" height="1" fill="#795548"/>
  <rect x="10" y="24" width="1" height="1" fill="#795548"/>
  <rect x="11" y="24" width="1" height="1" fill="#5D4037"/>
  <rect x="12" y="24" width="1" height="1" fill="#6B7280"/>
  <rect x="13" y="24" width="1" height="1" fill="#9CA3AF"/>
  <rect x="14" y="24" width="1" height="1" fill="#9CA3AF"/>
  <rect x="15" y="24" width="1" height="1" fill="#9CA3AF"/>
  <rect x="16" y="24" width="1" height="1" fill="#9CA3AF"/>
  <rect x="17" y="24" width="1" height="1" fill="#9CA3AF"/>
  <rect x="18" y="24" width="1" height="1" fill="#9CA3AF"/>
  <rect x="19" y="24" width="1" height="1" fill="#6B7280"/>
  <rect x="20" y="24" width="1" height="1" fill="#5D4037"/>
  <rect x="21" y="24" width="1" height="1" fill="#795548"/>
  <rect x="22" y="24" width="1" height="1" fill="#795548"/>
  <rect x="23" y="24" width="1" height="1" fill="#5D4037"/>

  <rect x="7" y="25" width="1" height="1" fill="#5D4037"/>
  <rect x="8" y="25" width="1" height="1" fill="#795548"/>
  <rect x="9" y="25" width="1" height="1" fill="#5D4037"/>
  <rect x="10" y="25" width="1" height="1" fill="#795548"/>
  <rect x="11" y="25" width="1" height="1" fill="#795548"/>
  <rect x="12" y="25" width="1" height="1" fill="#5D4037"/>
  <rect x="13" y="25" width="1" height="1" fill="#795548"/>
  <rect x="14" y="25" width="1" height="1" fill="#5D4037"/>
  <rect x="15" y="25" width="1" height="1" fill="#5D4037"/>
  <rect x="16" y="25" width="1" height="1" fill="#5D4037"/>
  <rect x="17" y="25" width="1" height="1" fill="#5D4037"/>
  <rect x="18" y="25" width="1" height="1" fill="#795548"/>
  <rect x="19" y="25" width="1" height="1" fill="#5D4037"/>
  <rect x="20" y="25" width="1" height="1" fill="#795548"/>
  <rect x="21" y="25" width="1" height="1" fill="#795548"/>
  <rect x="22" y="25" width="1" height="1" fill="#5D4037"/>
  <rect x="23" y="25" width="1" height="1" fill="#795548"/>
  <rect x="24" y="25" width="1" height="1" fill="#5D4037"/>

  <!-- Row 26-27: robe body -->
  <rect x="6" y="26" width="1" height="1" fill="#4B3832"/>
  <rect x="7" y="26" width="1" height="1" fill="#795548"/>
  <rect x="8" y="26" width="1" height="1" fill="#5D4037"/>
  <rect x="9" y="26" width="1" height="1" fill="#795548"/>
  <rect x="10" y="26" width="1" height="1" fill="#8D6E63"/>
  <rect x="11" y="26" width="1" height="1" fill="#795548"/>
  <rect x="12" y="26" width="1" height="1" fill="#795548"/>
  <rect x="13" y="26" width="1" height="1" fill="#795548"/>
  <rect x="14" y="26" width="1" height="1" fill="#795548"/>
  <rect x="15" y="26" width="1" height="1" fill="#795548"/>
  <rect x="16" y="26" width="1" height="1" fill="#795548"/>
  <rect x="17" y="26" width="1" height="1" fill="#795548"/>
  <rect x="18" y="26" width="1" height="1" fill="#795548"/>
  <rect x="19" y="26" width="1" height="1" fill="#795548"/>
  <rect x="20" y="26" width="1" height="1" fill="#795548"/>
  <rect x="21" y="26" width="1" height="1" fill="#8D6E63"/>
  <rect x="22" y="26" width="1" height="1" fill="#795548"/>
  <rect x="23" y="26" width="1" height="1" fill="#5D4037"/>
  <rect x="24" y="26" width="1" height="1" fill="#795548"/>
  <rect x="25" y="26" width="1" height="1" fill="#4B3832"/>

  <rect x="6" y="27" width="1" height="1" fill="#5D4037"/>
  <rect x="7" y="27" width="1" height="1" fill="#795548"/>
  <rect x="8" y="27" width="1" height="1" fill="#795548"/>
  <rect x="9" y="27" width="1" height="1" fill="#5D4037"/>
  <rect x="10" y="27" width="1" height="1" fill="#795548"/>
  <rect x="11" y="27" width="1" height="1" fill="#795548"/>
  <rect x="12" y="27" width="1" height="1" fill="#8D6E63"/>
  <rect x="13" y="27" width="1" height="1" fill="#795548"/>
  <rect x="14" y="27" width="1" height="1" fill="#795548"/>
  <rect x="15" y="27" width="1" height="1" fill="#5D4037"/>
  <rect x="16" y="27" width="1" height="1" fill="#5D4037"/>
  <rect x="17" y="27" width="1" height="1" fill="#795548"/>
  <rect x="18" y="27" width="1" height="1" fill="#795548"/>
  <rect x="19" y="27" width="1" height="1" fill="#8D6E63"/>
  <rect x="20" y="27" width="1" height="1" fill="#795548"/>
  <rect x="21" y="27" width="1" height="1" fill="#795548"/>
  <rect x="22" y="27" width="1" height="1" fill="#5D4037"/>
  <rect x="23" y="27" width="1" height="1" fill="#795548"/>
  <rect x="24" y="27" width="1" height="1" fill="#795548"/>
  <rect x="25" y="27" width="1" height="1" fill="#5D4037"/>

  <!-- Row 28-29: robe lower -->
  <rect x="6" y="28" width="1" height="1" fill="#795548"/>
  <rect x="7" y="28" width="1" height="1" fill="#5D4037"/>
  <rect x="8" y="28" width="1" height="1" fill="#795548"/>
  <rect x="9" y="28" width="1" height="1" fill="#795548"/>
  <rect x="10" y="28" width="1" height="1" fill="#795548"/>
  <rect x="11" y="28" width="1" height="1" fill="#5D4037"/>
  <rect x="12" y="28" width="1" height="1" fill="#795548"/>
  <rect x="13" y="28" width="1" height="1" fill="#795548"/>
  <rect x="14" y="28" width="1" height="1" fill="#795548"/>
  <rect x="15" y="28" width="1" height="1" fill="#795548"/>
  <rect x="16" y="28" width="1" height="1" fill="#795548"/>
  <rect x="17" y="28" width="1" height="1" fill="#795548"/>
  <rect x="18" y="28" width="1" height="1" fill="#795548"/>
  <rect x="19" y="28" width="1" height="1" fill="#795548"/>
  <rect x="20" y="28" width="1" height="1" fill="#5D4037"/>
  <rect x="21" y="28" width="1" height="1" fill="#795548"/>
  <rect x="22" y="28" width="1" height="1" fill="#795548"/>
  <rect x="23" y="28" width="1" height="1" fill="#795548"/>
  <rect x="24" y="28" width="1" height="1" fill="#5D4037"/>
  <rect x="25" y="28" width="1" height="1" fill="#795548"/>

  <rect x="6" y="29" width="1" height="1" fill="#4B3832"/>
  <rect x="7" y="29" width="1" height="1" fill="#795548"/>
  <rect x="8" y="29" width="1" height="1" fill="#795548"/>
  <rect x="9" y="29" width="1" height="1" fill="#5D4037"/>
  <rect x="10" y="29" width="1" height="1" fill="#795548"/>
  <rect x="11" y="29" width="1" height="1" fill="#795548"/>
  <rect x="12" y="29" width="1" height="1" fill="#5D4037"/>
  <rect x="13" y="29" width="1" height="1" fill="#795548"/>
  <rect x="14" y="29" width="1" height="1" fill="#795548"/>
  <rect x="15" y="29" width="1" height="1" fill="#795548"/>
  <rect x="16" y="29" width="1" height="1" fill="#795548"/>
  <rect x="17" y="29" width="1" height="1" fill="#795548"/>
  <rect x="18" y="29" width="1" height="1" fill="#795548"/>
  <rect x="19" y="29" width="1" height="1" fill="#5D4037"/>
  <rect x="20" y="29" width="1" height="1" fill="#795548"/>
  <rect x="21" y="29" width="1" height="1" fill="#795548"/>
  <rect x="22" y="29" width="1" height="1" fill="#5D4037"/>
  <rect x="23" y="29" width="1" height="1" fill="#795548"/>
  <rect x="24" y="29" width="1" height="1" fill="#795548"/>
  <rect x="25" y="29" width="1" height="1" fill="#4B3832"/>

  <!-- Row 30-31: robe bottom -->
  <rect x="6" y="30" width="1" height="1" fill="#5D4037"/>
  <rect x="7" y="30" width="1" height="1" fill="#795548"/>
  <rect x="8" y="30" width="1" height="1" fill="#5D4037"/>
  <rect x="9" y="30" width="1" height="1" fill="#795548"/>
  <rect x="10" y="30" width="1" height="1" fill="#795548"/>
  <rect x="11" y="30" width="1" height="1" fill="#795548"/>
  <rect x="12" y="30" width="1" height="1" fill="#795548"/>
  <rect x="13" y="30" width="1" height="1" fill="#5D4037"/>
  <rect x="14" y="30" width="1" height="1" fill="#795548"/>
  <rect x="15" y="30" width="1" height="1" fill="#795548"/>
  <rect x="16" y="30" width="1" height="1" fill="#795548"/>
  <rect x="17" y="30" width="1" height="1" fill="#795548"/>
  <rect x="18" y="30" width="1" height="1" fill="#5D4037"/>
  <rect x="19" y="30" width="1" height="1" fill="#795548"/>
  <rect x="20" y="30" width="1" height="1" fill="#795548"/>
  <rect x="21" y="30" width="1" height="1" fill="#795548"/>
  <rect x="22" y="30" width="1" height="1" fill="#795548"/>
  <rect x="23" y="30" width="1" height="1" fill="#5D4037"/>
  <rect x="24" y="30" width="1" height="1" fill="#795548"/>
  <rect x="25" y="30" width="1" height="1" fill="#5D4037"/>

  <rect x="6" y="31" width="1" height="1" fill="#4B3832"/>
  <rect x="7" y="31" width="1" height="1" fill="#5D4037"/>
  <rect x="8" y="31" width="1" height="1" fill="#795548"/>
  <rect x="9" y="31" width="1" height="1" fill="#795548"/>
  <rect x="10" y="31" width="1" height="1" fill="#5D4037"/>
  <rect x="11" y="31" width="1" height="1" fill="#795548"/>
  <rect x="12" y="31" width="1" height="1" fill="#795548"/>
  <rect x="13" y="31" width="1" height="1" fill="#795548"/>
  <rect x="14" y="31" width="1" height="1" fill="#795548"/>
  <rect x="15" y="31" width="1" height="1" fill="#5D4037"/>
  <rect x="16" y="31" width="1" height="1" fill="#5D4037"/>
  <rect x="17" y="31" width="1" height="1" fill="#795548"/>
  <rect x="18" y="31" width="1" height="1" fill="#795548"/>
  <rect x="19" y="31" width="1" height="1" fill="#795548"/>
  <rect x="20" y="31" width="1" height="1" fill="#795548"/>
  <rect x="21" y="31" width="1" height="1" fill="#5D4037"/>
  <rect x="22" y="31" width="1" height="1" fill="#795548"/>
  <rect x="23" y="31" width="1" height="1" fill="#795548"/>
  <rect x="24" y="31" width="1" height="1" fill="#5D4037"/>
  <rect x="25" y="31" width="1" height="1" fill="#4B3832"/>
</svg>
