<svg xmlns="http://www.w3.org/2000/svg" viewBox="0 0 16 16" width="128" height="128" shape-rendering="crispEdges">
  <!-- Splinter (Master Splinter) pixel art - 16x16 grid, display size 128x128 -->
  <!-- Color palette:
    #5D4037 = dark brown (ear edges, brow)
    #8D6E63 = medium brown (main fur)
    #A1887F = light brown (face fur)
    #D7CCC8 = cream (snout/inner face)
    #E8B4B8 = pink (inner ears, nose)
    #212121 = black (eyes)
    #424242 = dark grey (whiskers, outlines)
    #FAFAFA = white (eye highlights)
    #795548 = warm brown (robe collar)
  -->

  <!-- Row 0: ear tips -->
  <rect x="3" y="0" width="1" height="1" fill="#5D4037"/>
  <rect x="4" y="0" width="1" height="1" fill="#5D4037"/>
  <rect x="11" y="0" width="1" height="1" fill="#5D4037"/>
  <rect x="12" y="0" width="1" height="1" fill="#5D4037"/>

  <!-- Row 1: ears -->
  <rect x="2" y="1" width="1" height="1" fill="#5D4037"/>
  <rect x="3" y="1" width="1" height="1" fill="#E8B4B8"/>
  <rect x="4" y="1" width="1" height="1" fill="#E8B4B8"/>
  <rect x="5" y="1" width="1" height="1" fill="#5D4037"/>
  <rect x="10" y="1" width="1" height="1" fill="#5D4037"/>
  <rect x="11" y="1" width="1" height="1" fill="#E8B4B8"/>
  <rect x="12" y="1" width="1" height="1" fill="#E8B4B8"/>
  <rect x="13" y="1" width="1" height="1" fill="#5D4037"/>

  <!-- Row 2: ears + top of head -->
  <rect x="2" y="2" width="1" height="1" fill="#5D4037"/>
  <rect x="3" y="2" width="1" height="1" fill="#E8B4B8"/>
  <rect x="4" y="2" width="1" height="1" fill="#E8B4B8"/>
  <rect x="5" y="2" width="1" height="1" fill="#8D6E63"/>
  <rect x="6" y="2" width="1" height="1" fill="#8D6E63"/>
  <rect x="7" y="2" width="1" height="1" fill="#8D6E63"/>
  <rect x="8" y="2" width="1" height="1" fill="#8D6E63"/>
  <rect x="9" y="2" width="1" height="1" fill="#8D6E63"/>
  <rect x="10" y="2" width="1" height="1" fill="#8D6E63"/>
  <rect x="11" y="2" width="1" height="1" fill="#E8B4B8"/>
  <rect x="12" y="2" width="1" height="1" fill="#E8B4B8"/>
  <rect x="13" y="2" width="1" height="1" fill="#5D4037"/>

  <!-- Row 3: forehead -->
  <rect x="3" y="3" width="1" height="1" fill="#5D4037"/>
  <rect x="4" y="3" width="1" height="1" fill="#8D6E63"/>
  <rect x="5" y="3" width="1" height="1" fill="#8D6E63"/>
  <rect x="6" y="3" width="1" height="1" fill="#8D6E63"/>
  <rect x="7" y="3" width="1" height="1" fill="#8D6E63"/>
  <rect x="8" y="3" width="1" height="1" fill="#8D6E63"/>
  <rect x="9" y="3" width="1" height="1" fill="#8D6E63"/>
  <rect x="10" y="3" width="1" height="1" fill="#8D6E63"/>
  <rect x="11" y="3" width="1" height="1" fill="#8D6E63"/>
  <rect x="12" y="3" width="1" height="1" fill="#5D4037"/>

  <!-- Row 4: brow line -->
  <rect x="3" y="4" width="1" height="1" fill="#5D4037"/>
  <rect x="4" y="4" width="1" height="1" fill="#5D4037"/>
  <rect x="5" y="4" width="1" height="1" fill="#8D6E63"/>
  <rect x="6" y="4" width="1" height="1" fill="#8D6E63"/>
  <rect x="7" y="4" width="1" height="1" fill="#A1887F"/>
  <rect x="8" y="4" width="1" height="1" fill="#A1887F"/>
  <rect x="9" y="4" width="1" height="1" fill="#8D6E63"/>
  <rect x="10" y="4" width="1" height="1" fill="#8D6E63"/>
  <rect x="11" y="4" width="1" height="1" fill="#5D4037"/>
  <rect x="12" y="4" width="1" height="1" fill="#5D4037"/>

  <!-- Row 5: eyes -->
  <rect x="3" y="5" width="1" height="1" fill="#8D6E63"/>
  <rect x="4" y="5" width="1" height="1" fill="#A1887F"/>
  <rect x="5" y="5" width="1" height="1" fill="#212121"/>
  <rect x="6" y="5" width="1" height="1" fill="#FAFAFA"/>
  <rect x="7" y="5" width="1" height="1" fill="#A1887F"/>
  <rect x="8" y="5" width="1" height="1" fill="#A1887F"/>
  <rect x="9" y="5" width="1" height="1" fill="#212121"/>
  <rect x="10" y="5" width="1" height="1" fill="#FAFAFA"/>
  <rect x="11" y="5" width="1" height="1" fill="#A1887F"/>
  <rect x="12" y="5" width="1" height="1" fill="#8D6E63"/>

  <!-- Row 6: under eyes / upper snout -->
  <rect x="3" y="6" width="1" height="1" fill="#8D6E63"/>
  <rect x="4" y="6" width="1" height="1" fill="#A1887F"/>
  <rect x="5" y="6" width="1" height="1" fill="#A1887F"/>
  <rect x="6" y="6" width="1" height="1" fill="#D7CCC8"/>
  <rect x="7" y="6" width="1" height="1" fill="#D7CCC8"/>
  <rect x="8" y="6" width="1" height="1" fill="#D7CCC8"/>
  <rect x="9" y="6" width="1" height="1" fill="#D7CCC8"/>
  <rect x="10" y="6" width="1" height="1" fill="#A1887F"/>
  <rect x="11" y="6" width="1" height="1" fill="#A1887F"/>
  <rect x="12" y="6" width="1" height="1" fill="#8D6E63"/>

  <!-- Row 7: nose + whiskers -->
  <rect x="1" y="7" width="1" height="1" fill="#424242"/>
  <rect x="2" y="7" width="1" height="1" fill="#424242"/>
  <rect x="3" y="7" width="1" height="1" fill="#8D6E63"/>
  <rect x="4" y="7" width="1" height="1" fill="#D7CCC8"/>
  <rect x="5" y="7" width="1" height="1" fill="#D7CCC8"/>
  <rect x="6" y="7" width="1" height="1" fill="#D7CCC8"/>
  <rect x="7" y="7" width="1" height="1" fill="#E8B4B8"/>
  <rect x="8" y="7" width="1" height="1" fill="#E8B4B8"/>
  <rect x="9" y="7" width="1" height="1" fill="#D7CCC8"/>
  <rect x="10" y="7" width="1" height="1" fill="#D7CCC8"/>
  <rect x="11" y="7" width="1" height="1" fill="#D7CCC8"/>
  <rect x="12" y="7" width="1" height="1" fill="#8D6E63"/>
  <rect x="13" y="7" width="1" height="1" fill="#424242"/>
  <rect x="14" y="7" width="1" height="1" fill="#424242"/>

  <!-- Row 8: mouth + whiskers -->
  <rect x="0" y="8" width="1" height="1" fill="#424242"/>
  <rect x="1" y="8" width="1" height="1" fill="#424242"/>
  <rect x="3" y="8" width="1" height="1" fill="#8D6E63"/>
  <rect x="4" y="8" width="1" height="1" fill="#D7CCC8"/>
  <rect x="5" y="8" width="1" height="1" fill="#D7CCC8"/>
  <rect x="6" y="8" width="1" height="1" fill="#D7CCC8"/>
  <rect x="7" y="8" width="1" height="1" fill="#D7CCC8"/>
  <rect x="8" y="8" width="1" height="1" fill="#D7CCC8"/>
  <rect x="9" y="8" width="1" height="1" fill="#D7CCC8"/>
  <rect x="10" y="8" width="1" height="1" fill="#D7CCC8"/>
  <rect x="11" y="8" width="1" height="1" fill="#D7CCC8"/>
  <rect x="12" y="8" width="1" height="1" fill="#8D6E63"/>
  <rect x="14" y="8" width="1" height="1" fill="#424242"/>
  <rect x="15" y="8" width="1" height="1" fill="#424242"/>

  <!-- Row 9: lower snout + whiskers -->
  <rect x="1" y="9" width="1" height="1" fill="#424242"/>
  <rect x="2" y="9" width="1" height="1" fill="#424242"/>
  <rect x="4" y="9" width="1" height="1" fill="#8D6E63"/>
  <rect x="5" y="9" width="1" height="1" fill="#D7CCC8"/>
  <rect x="6" y="9" width="1" height="1" fill="#D7CCC8"/>
  <rect x="7" y="9" width="1" height="1" fill="#424242"/>
  <rect x="8" y="9" width="1" height="1" fill="#424242"/>
  <rect x="9" y="9" width="1" height="1" fill="#D7CCC8"/>
  <rect x="10" y="9" width="1" height="1" fill="#D7CCC8"/>
  <rect x="11" y="9" width="1" height="1" fill="#8D6E63"/>
  <rect x="13" y="9" width="1" height="1" fill="#424242"/>
  <rect x="14" y="9" width="1" height="1" fill="#424242"/>

  <!-- Row 10: chin -->
  <rect x="4" y="10" width="1" height="1" fill="#8D6E63"/>
  <rect x="5" y="10" width="1" height="1" fill="#8D6E63"/>
  <rect x="6" y="10" width="1" height="1" fill="#D7CCC8"/>
  <rect x="7" y="10" width="1" height="1" fill="#D7CCC8"/>
  <rect x="8" y="10" width="1" height="1" fill="#D7CCC8"/>
  <rect x="9" y="10" width="1" height="1" fill="#D7CCC8"/>
  <rect x="10" y="10" width="1" height="1" fill="#8D6E63"/>
  <rect x="11" y="10" width="1" height="1" fill="#8D6E63"/>

  <!-- Row 11: lower chin / jaw -->
  <rect x="5" y="11" width="1" height="1" fill="#8D6E63"/>
  <rect x="6" y="11" width="1" height="1" fill="#A1887F"/>
  <rect x="7" y="11" width="1" height="1" fill="#A1887F"/>
  <rect x="8" y="11" width="1" height="1" fill="#A1887F"/>
  <rect x="9" y="11" width="1" height="1" fill="#A1887F"/>
  <rect x="10" y="11" width="1" height="1" fill="#8D6E63"/>

  <!-- Row 12: neck / robe collar top -->
  <rect x="4" y="12" width="1" height="1" fill="#795548"/>
  <rect x="5" y="12" width="1" height="1" fill="#795548"/>
  <rect x="6" y="12" width="1" height="1" fill="#8D6E63"/>
  <rect x="7" y="12" width="1" height="1" fill="#8D6E63"/>
  <rect x="8" y="12" width="1" height="1" fill="#8D6E63"/>
  <rect x="9" y="12" width="1" height="1" fill="#8D6E63"/>
  <rect x="10" y="12" width="1" height="1" fill="#795548"/>
  <rect x="11" y="12" width="1" height="1" fill="#795548"/>

  <!-- Row 13: robe collar -->
  <rect x="3" y="13" width="1" height="1" fill="#795548"/>
  <rect x="4" y="13" width="1" height="1" fill="#5D4037"/>
  <rect x="5" y="13" width="1" height="1" fill="#795548"/>
  <rect x="6" y="13" width="1" height="1" fill="#795548"/>
  <rect x="7" y="13" width="1" height="1" fill="#5D4037"/>
  <rect x="8" y="13" width="1" height="1" fill="#5D4037"/>
  <rect x="9" y="13" width="1" height="1" fill="#795548"/>
  <rect x="10" y="13" width="1" height="1" fill="#795548"/>
  <rect x="11" y="13" width="1" height="1" fill="#5D4037"/>
  <rect x="12" y="13" width="1" height="1" fill="#795548"/>

  <!-- Row 14: robe -->
  <rect x="3" y="14" width="1" height="1" fill="#795548"/>
  <rect x="4" y="14" width="1" height="1" fill="#795548"/>
  <rect x="5" y="14" width="1" height="1" fill="#5D4037"/>
  <rect x="6" y="14" width="1" height="1" fill="#795548"/>
  <rect x="7" y="14" width="1" height="1" fill="#795548"/>
  <rect x="8" y="14" width="1" height="1" fill="#795548"/>
  <rect x="9" y="14" width="1" height="1" fill="#795548"/>
  <rect x="10" y="14" width="1" height="1" fill="#5D4037"/>
  <rect x="11" y="14" width="1" height="1" fill="#795548"/>
  <rect x="12" y="14" width="1" height="1" fill="#795548"/>

  <!-- Row 15: robe bottom -->
  <rect x="3" y="15" width="1" height="1" fill="#5D4037"/>
  <rect x="4" y="15" width="1" height="1" fill="#795548"/>
  <rect x="5" y="15" width="1" height="1" fill="#795548"/>
  <rect x="6" y="15" width="1" height="1" fill="#795548"/>
  <rect x="7" y="15" width="1" height="1" fill="#795548"/>
  <rect x="8" y="15" width="1" height="1" fill="#795548"/>
  <rect x="9" y="15" width="1" height="1" fill="#795548"/>
  <rect x="10" y="15" width="1" height="1" fill="#795548"/>
  <rect x="11" y="15" width="1" height="1" fill="#795548"/>
  <rect x="12" y="15" width="1" height="1" fill="#5D4037"/>
</svg>
